<svg xmlns="http://www.w3.org/2000/svg" xmlns:xlink="http://www.w3.org/1999/xlink" viewBox="0 0 306.96 297.48"><defs><style>.cls-1{fill:url(#linear-gradient);}.cls-2{fill:url(#linear-gradient-2);}</style><linearGradient id="linear-gradient" x1="187.76" y1="91.22" x2="314.23" y2="50.39" gradientTransform="matrix(0.99, 0.14, -0.14, 0.99, -15.5, 98.95)" gradientUnits="userSpaceOnUse"><stop offset="0.1" stop-color="#0b4496"/><stop offset="0.96" stop-color="#27aae1"/></linearGradient><linearGradient id="linear-gradient-2" x1="144.54" y1="53.8" x2="150.54" y2="277.8" gradientUnits="userSpaceOnUse"><stop offset="0" stop-color="#1c75bc"/><stop offset="0.29" stop-color="#27aae1"/><stop offset="0.99" stop-color="#08bff7"/></linearGradient></defs><title>18062642 [Converted]</title><g id="graphics"><path class="cls-1" d="M148.24,165.46a70.52,70.52,0,0,0,10.12,63.17c16.36,22.51,41.48,32.15,68.75,28.19,15.42-2.24,24.91-9.63,24.91-9.63,18.4-14.64,22.18-31.87,16.45-40.58-5.25-8-13.14-13.52-35-8C200.14,207.27,157.42,188.91,148.24,165.46Z"/><path class="cls-2" d="M174,129.93a70.62,70.62,0,0,1,69.19-7.88c13.57-42.1-23.59-59.23-38-52.73,2.33-14.42-5.33-30.8-26.57-35.7-26.13-6-44.21,11.74-44.21,11.74s4.84-14-9.34-20.55C113.62,19.5,100.56,29,100.56,29A133.07,133.07,0,0,0,209.68,266.06c13.71-3.26,30.79-10.08,41.13-18-30.89,17.74-71,10-92.45-19.46A70.66,70.66,0,0,1,174,129.93Z"/></g></svg>